<svg width="71" height="76" viewBox="0 0 71 76" fill="none" xmlns="http://www.w3.org/2000/svg">
<path d="M0.5 10C0.5 4.47715 4.97715 0 10.5 0H60.5C66.0229 0 70.5 4.47715 70.5 10V66C70.5 71.5229 66.0229 76 60.5 76H10.5C4.97715 76 0.5 71.5229 0.5 66V10Z" fill="#DDF4FF"/>
<g clip-path="url(#clip0_2689_4292)">
<g clip-path="url(#clip1_2689_4292)">
<path d="M33.0947 34.4947C33.1323 34.465 33.1716 34.4384 33.2105 34.4104C33.3096 34.339 33.4131 34.2745 33.5207 34.2172C33.5629 34.1941 33.6038 34.1711 33.6472 34.1508C34.6515 33.663 35.8506 33.8274 36.6867 34.5671C36.7308 34.6056 36.7668 34.6492 36.8085 34.6898C36.8925 34.7708 36.9716 34.8567 37.0451 34.9473C37.0868 34.9994 37.1217 35.0557 37.1576 35.1108C37.2175 35.1976 37.2726 35.2876 37.3223 35.3806C37.3544 35.4413 37.3824 35.5031 37.4099 35.5662C37.451 35.6603 37.4867 35.7569 37.5172 35.8549C37.5375 35.9208 37.5567 35.9856 37.5735 36.0523C37.5965 36.1546 37.6138 36.2578 37.6253 36.3621C37.633 36.4272 37.6426 36.4914 37.6459 36.557C37.65 36.6715 37.647 36.7859 37.6371 36.9001C37.633 36.9561 37.6336 37.0124 37.6264 37.0686C37.6036 37.2328 37.5658 37.3947 37.5139 37.552C37.5139 37.5605 37.5112 37.5684 37.5084 37.5767L39.0177 38.4481L41.8282 33.5758L26.2539 24.582L23.4434 29.4538L32.7417 34.8213C32.8496 34.7024 32.9679 34.5932 33.0947 34.4947Z" fill="#E74040"/>
<path d="M20.6543 29.7883L25.1512 22L26.1241 22.5618L21.6273 30.3501L20.6543 29.7883Z" fill="#E74040"/>
<path d="M45.9883 39.8725L46.5507 38.8984L50.4448 41.1469L49.8824 42.121L45.9883 39.8725Z" fill="#E74040"/>
<path d="M40.5586 38.0333L42.2449 35.1133L46.139 37.362L44.4527 40.282L40.5586 38.0333Z" fill="#E74040"/>
<path d="M36.1697 37.9645C36.1439 37.917 36.1113 37.8736 36.0726 37.8358C36.1612 37.7438 36.2389 37.6417 36.3037 37.5317C36.7678 36.7247 36.4936 35.6947 35.6897 35.2253C35.5741 35.1605 35.4512 35.1098 35.3238 35.0735C35.2862 35.0623 35.2475 35.0554 35.2116 35.0469C35.1191 35.0269 35.0249 35.0145 34.9305 35.0099C34.8899 35.0099 34.8501 35.0049 34.8095 35.006C34.6753 35.009 34.5419 35.028 34.412 35.0623C33.8392 35.213 33.3883 35.6551 33.2266 36.2252C33.065 36.7953 33.2165 37.4082 33.6251 37.8374C33.5867 37.8747 33.5543 37.9176 33.5285 37.9645L25.9118 53.1862C25.7732 53.4642 25.886 53.8018 26.1638 53.9407C26.4415 54.0793 26.7794 53.9667 26.918 53.6887L34.2844 38.9504V53.4376C34.2844 53.748 34.5361 53.9997 34.8465 53.9997C35.1569 53.9997 35.4086 53.748 35.4086 53.4376V38.9548L42.7723 53.6887C42.9112 53.9667 43.2488 54.0793 43.5268 53.9407C43.8046 53.8018 43.9174 53.4642 43.7785 53.1862L36.1697 37.9645Z" fill="#E74040"/>
</g>
</g>
<defs>
<clipPath id="clip0_2689_4292">
<rect width="32" height="32" fill="white" transform="translate(19.5 22)"/>
</clipPath>
<clipPath id="clip1_2689_4292">
<rect width="32" height="32" fill="white" transform="translate(19.5 22)"/>
</clipPath>
</defs>
</svg>
