<svg width="70" height="76" viewBox="0 0 70 76" fill="none" xmlns="http://www.w3.org/2000/svg">
<path d="M0 10C0 4.47715 4.47715 0 10 0H60C65.5229 0 70 4.47715 70 10V66C70 71.5229 65.5229 76 60 76H10C4.47715 76 0 71.5229 0 66V10Z" fill="#F6F7FB"/>
<g clip-path="url(#clip0_2689_4281)">
<g clip-path="url(#clip1_2689_4281)">
<path d="M20.7139 41.9994C20.7139 42.315 20.9697 42.5709 21.2853 42.5709H48.7139C49.0294 42.5709 49.2853 42.315 49.2853 41.9994V24.2852H20.7139V41.9994Z" fill="#E74040"/>
<path d="M50.4286 22H19.5714C19.2559 22 19 22.2559 19 22.5714C19 22.887 19.2559 23.1429 19.5714 23.1429H50.4286C50.7441 23.1429 51 22.887 51 22.5714C51 22.2559 50.7441 22 50.4286 22Z" fill="#E74040"/>
<path d="M39.571 51.7148H35.571V44.8577H36.1424C36.458 44.8577 36.7139 44.6018 36.7139 44.2863V43.7148H33.2853V44.2863C33.2853 44.6018 33.5412 44.8577 33.8567 44.8577H34.4282V51.7148H30.4282C29.4814 51.7148 28.7139 52.4824 28.7139 53.4291V54.0006H41.2853V53.4291C41.2853 52.4824 40.5177 51.7148 39.571 51.7148Z" fill="#E74040"/>
</g>
</g>
<defs>
<clipPath id="clip0_2689_4281">
<rect width="32" height="32" fill="white" transform="translate(19 22)"/>
</clipPath>
<clipPath id="clip1_2689_4281">
<rect width="32" height="32" fill="white" transform="translate(19 22)"/>
</clipPath>
</defs>
</svg>
