<svg width="70" height="76" viewBox="0 0 70 76" fill="none" xmlns="http://www.w3.org/2000/svg">
<path d="M0 10C0 4.47715 4.47715 0 10 0H60C65.5229 0 70 4.47715 70 10V66C70 71.5229 65.5229 76 60 76H10C4.47715 76 0 71.5229 0 66V10Z" fill="#FFF2F3"/>
<g clip-path="url(#clip0_2689_4313)">
<g clip-path="url(#clip1_2689_4313)">
<g clip-path="url(#clip2_2689_4313)">
<path d="M30.2754 43.6055H39.7247V48.3301H30.2754V43.6055Z" fill="#E74040"/>
<path d="M34.9997 25.6523C29.2683 25.6523 24.6055 30.3153 24.6055 36.0466V50.2206C24.6055 52.3047 26.3011 54.0003 28.3852 54.0003H41.6142C43.6984 54.0003 45.394 52.3047 45.394 50.2206V36.0466C45.394 30.3152 40.7312 25.6523 34.9997 25.6523ZM29.3301 34.1567H40.6693V36.0466H38.7795V37.9365H36.8896V36.0466H29.3301V34.1567ZM41.6142 50.2206H28.3852V41.7162H41.6142V50.2206Z" fill="#E74040"/>
<path d="M44.7042 23.8388L39.3411 22L38.5566 24.288C40.4519 24.8625 42.1545 25.8834 43.5422 27.228L44.7042 23.8388Z" fill="#E74040"/>
<path d="M31.4425 24.288L30.658 22L25.2949 23.8388L26.4569 27.228C27.8446 25.8834 29.5473 24.8625 31.4425 24.288Z" fill="#E74040"/>
</g>
</g>
</g>
<defs>
<clipPath id="clip0_2689_4313">
<rect width="32" height="32" fill="white" transform="translate(19 22)"/>
</clipPath>
<clipPath id="clip1_2689_4313">
<rect width="32" height="32" fill="white" transform="translate(19 22)"/>
</clipPath>
<clipPath id="clip2_2689_4313">
<rect width="20.7885" height="32" fill="white" transform="translate(24.6055 22)"/>
</clipPath>
</defs>
</svg>
